<mxfile host="app.diagrams.net" agent="Mozilla/5.0 (Macintosh; Intel Mac OS X 10_15_7) AppleWebKit/537.36 (KHTML, like Gecko) Chrome/131.0.0.0 Safari/537.36" version="25.0.3">
  <diagram name="Page-1" id="wV0wfNyUJDSjz2fPnkGI">
    <mxGraphModel dx="794" dy="452" grid="1" gridSize="10" guides="1" tooltips="1" connect="1" arrows="1" fold="1" page="1" pageScale="1" pageWidth="1100" pageHeight="850" math="0" shadow="0">
      <root>
        <mxCell id="0" />
        <mxCell id="1" parent="0" />
        <mxCell id="xtmV2fKqcU-oVq7hbdmb-4" value="Metadata" style="swimlane;fontStyle=1;align=center;verticalAlign=middle;childLayout=stackLayout;horizontal=1;startSize=29;horizontalStack=0;resizeParent=1;resizeParentMax=0;resizeLast=0;collapsible=0;marginBottom=0;html=1;whiteSpace=wrap;fontFamily=Garamond;fontSize=14;" parent="1" vertex="1">
          <mxGeometry x="130" y="68" width="140" height="79" as="geometry" />
        </mxCell>
        <mxCell id="xtmV2fKqcU-oVq7hbdmb-5" value="-name: string" style="text;html=1;strokeColor=none;fillColor=none;align=left;verticalAlign=middle;spacingLeft=4;spacingRight=4;overflow=hidden;rotatable=0;points=[[0,0.5],[1,0.5]];portConstraint=eastwest;whiteSpace=wrap;fontFamily=Garamond;fontSize=14;" parent="xtmV2fKqcU-oVq7hbdmb-4" vertex="1">
          <mxGeometry y="29" width="140" height="25" as="geometry" />
        </mxCell>
        <mxCell id="xtmV2fKqcU-oVq7hbdmb-6" value="-goal: string" style="text;html=1;strokeColor=none;fillColor=none;align=left;verticalAlign=middle;spacingLeft=4;spacingRight=4;overflow=hidden;rotatable=0;points=[[0,0.5],[1,0.5]];portConstraint=eastwest;whiteSpace=wrap;fontFamily=Garamond;fontSize=14;" parent="xtmV2fKqcU-oVq7hbdmb-4" vertex="1">
          <mxGeometry y="54" width="140" height="25" as="geometry" />
        </mxCell>
        <mxCell id="xtmV2fKqcU-oVq7hbdmb-13" value="Communication Configuration" style="swimlane;fontStyle=1;align=center;verticalAlign=middle;childLayout=stackLayout;horizontal=1;startSize=40;horizontalStack=0;resizeParent=1;resizeParentMax=0;resizeLast=0;collapsible=0;marginBottom=0;html=1;whiteSpace=wrap;fontFamily=Garamond;fontSize=14;" parent="1" vertex="1">
          <mxGeometry x="130" y="180" width="140" height="65" as="geometry" />
        </mxCell>
        <mxCell id="xtmV2fKqcU-oVq7hbdmb-16" value="Layout" style="swimlane;fontStyle=1;align=center;verticalAlign=middle;childLayout=stackLayout;horizontal=1;startSize=29;horizontalStack=0;resizeParent=1;resizeParentMax=0;resizeLast=0;collapsible=0;marginBottom=0;html=1;whiteSpace=wrap;fontFamily=Garamond;fontSize=14;" parent="1" vertex="1">
          <mxGeometry x="630" y="68" width="190" height="79" as="geometry" />
        </mxCell>
        <mxCell id="xtmV2fKqcU-oVq7hbdmb-17" value="-componentIdentifier: character" style="text;html=1;strokeColor=none;fillColor=none;align=center;verticalAlign=middle;spacingLeft=4;spacingRight=4;overflow=hidden;rotatable=0;points=[[0,0.5],[1,0.5]];portConstraint=eastwest;whiteSpace=wrap;fontFamily=Garamond;fontSize=14;" parent="xtmV2fKqcU-oVq7hbdmb-16" vertex="1">
          <mxGeometry y="29" width="190" height="25" as="geometry" />
        </mxCell>
        <mxCell id="xtmV2fKqcU-oVq7hbdmb-18" value="-slot: string" style="text;html=1;strokeColor=none;fillColor=none;align=left;verticalAlign=middle;spacingLeft=4;spacingRight=4;overflow=hidden;rotatable=0;points=[[0,0.5],[1,0.5]];portConstraint=eastwest;whiteSpace=wrap;fontFamily=Garamond;fontSize=14;" parent="xtmV2fKqcU-oVq7hbdmb-16" vertex="1">
          <mxGeometry y="54" width="190" height="25" as="geometry" />
        </mxCell>
        <mxCell id="xtmV2fKqcU-oVq7hbdmb-19" value="DSAC Component" style="swimlane;fontStyle=1;align=center;verticalAlign=middle;childLayout=stackLayout;horizontal=1;startSize=29;horizontalStack=0;resizeParent=1;resizeParentMax=0;resizeLast=0;collapsible=0;marginBottom=0;html=1;whiteSpace=wrap;fontFamily=Garamond;fontSize=14;" parent="1" vertex="1">
          <mxGeometry x="384" y="206" width="140" height="54" as="geometry" />
        </mxCell>
        <mxCell id="xtmV2fKqcU-oVq7hbdmb-20" value="-identifier: character" style="text;html=1;strokeColor=none;fillColor=none;align=center;verticalAlign=middle;spacingLeft=4;spacingRight=4;overflow=hidden;rotatable=0;points=[[0,0.5],[1,0.5]];portConstraint=eastwest;whiteSpace=wrap;fontFamily=Garamond;fontSize=14;" parent="xtmV2fKqcU-oVq7hbdmb-19" vertex="1">
          <mxGeometry y="29" width="140" height="25" as="geometry" />
        </mxCell>
        <mxCell id="xtmV2fKqcU-oVq7hbdmb-22" value="DSAC Composition" style="swimlane;fontStyle=1;align=center;verticalAlign=middle;childLayout=stackLayout;horizontal=1;startSize=29;horizontalStack=0;resizeParent=1;resizeParentMax=0;resizeLast=0;collapsible=0;marginBottom=0;html=1;whiteSpace=wrap;fontFamily=Garamond;fontSize=14;" parent="1" vertex="1">
          <mxGeometry x="380" y="82.5" width="140" height="54" as="geometry" />
        </mxCell>
        <mxCell id="xtmV2fKqcU-oVq7hbdmb-25" value="-identifier: character" style="text;html=1;strokeColor=none;fillColor=none;align=left;verticalAlign=middle;spacingLeft=4;spacingRight=4;overflow=hidden;rotatable=0;points=[[0,0.5],[1,0.5]];portConstraint=eastwest;whiteSpace=wrap;fontFamily=Garamond;fontSize=14;" parent="xtmV2fKqcU-oVq7hbdmb-22" vertex="1">
          <mxGeometry y="29" width="140" height="25" as="geometry" />
        </mxCell>
        <mxCell id="xtmV2fKqcU-oVq7hbdmb-26" value="" style="endArrow=diamondThin;endFill=1;endSize=12;html=1;rounded=0;exitX=1;exitY=0.5;exitDx=0;exitDy=0;entryX=0;entryY=0.5;entryDx=0;entryDy=0;fontFamily=Garamond;" parent="1" source="xtmV2fKqcU-oVq7hbdmb-5" target="xtmV2fKqcU-oVq7hbdmb-22" edge="1">
          <mxGeometry width="160" relative="1" as="geometry">
            <mxPoint x="270" y="103.5" as="sourcePoint" />
            <mxPoint x="370" y="103.5" as="targetPoint" />
          </mxGeometry>
        </mxCell>
        <mxCell id="xtmV2fKqcU-oVq7hbdmb-27" value="1" style="text;html=1;align=center;verticalAlign=middle;resizable=0;points=[];autosize=1;strokeColor=none;fillColor=none;fontFamily=Garamond;" parent="1" vertex="1">
          <mxGeometry x="270" y="82.5" width="30" height="30" as="geometry" />
        </mxCell>
        <mxCell id="xtmV2fKqcU-oVq7hbdmb-28" value="1" style="text;html=1;align=center;verticalAlign=middle;resizable=0;points=[];autosize=1;strokeColor=none;fillColor=none;fontFamily=Garamond;" parent="1" vertex="1">
          <mxGeometry x="350" y="82.5" width="30" height="30" as="geometry" />
        </mxCell>
        <mxCell id="xtmV2fKqcU-oVq7hbdmb-29" value="1" style="endArrow=none;html=1;endSize=12;startArrow=diamondThin;startSize=14;startFill=0;edgeStyle=orthogonalEdgeStyle;align=left;verticalAlign=bottom;rounded=0;entryX=0.5;entryY=0;entryDx=0;entryDy=0;endFill=0;exitX=0.533;exitY=0.984;exitDx=0;exitDy=0;exitPerimeter=0;" parent="1" source="xtmV2fKqcU-oVq7hbdmb-25" target="xtmV2fKqcU-oVq7hbdmb-19" edge="1">
          <mxGeometry x="-1" y="3" relative="1" as="geometry">
            <mxPoint x="550" y="110" as="sourcePoint" />
            <mxPoint x="450" y="370" as="targetPoint" />
          </mxGeometry>
        </mxCell>
        <mxCell id="xtmV2fKqcU-oVq7hbdmb-30" value="0 ..*" style="text;html=1;align=center;verticalAlign=middle;resizable=0;points=[];autosize=1;strokeColor=none;fillColor=none;fontFamily=Garamond;" parent="1" vertex="1">
          <mxGeometry x="590" y="82.5" width="40" height="30" as="geometry" />
        </mxCell>
        <mxCell id="xtmV2fKqcU-oVq7hbdmb-31" value="" style="endArrow=diamondThin;endFill=1;endSize=12;html=1;rounded=0;exitX=0;exitY=0.5;exitDx=0;exitDy=0;fontFamily=Garamond;entryX=1;entryY=0.5;entryDx=0;entryDy=0;edgeStyle=orthogonalEdgeStyle;" parent="1" source="xtmV2fKqcU-oVq7hbdmb-17" target="xtmV2fKqcU-oVq7hbdmb-22" edge="1">
          <mxGeometry width="160" relative="1" as="geometry">
            <mxPoint x="280" y="120" as="sourcePoint" />
            <mxPoint x="500" y="190" as="targetPoint" />
          </mxGeometry>
        </mxCell>
        <mxCell id="xtmV2fKqcU-oVq7hbdmb-32" value="1" style="text;html=1;align=center;verticalAlign=middle;resizable=0;points=[];autosize=1;strokeColor=none;fillColor=none;fontFamily=Garamond;" parent="1" vertex="1">
          <mxGeometry x="460" y="136.5" width="30" height="30" as="geometry" />
        </mxCell>
        <mxCell id="xtmV2fKqcU-oVq7hbdmb-33" value="0 ..*" style="text;html=1;align=center;verticalAlign=middle;resizable=0;points=[];autosize=1;strokeColor=none;fillColor=none;fontFamily=Garamond;" parent="1" vertex="1">
          <mxGeometry x="450" y="180" width="40" height="30" as="geometry" />
        </mxCell>
        <mxCell id="1Ee7xdFOG9PcMPEvIMVO-1" value="1" style="text;html=1;align=center;verticalAlign=middle;resizable=0;points=[];autosize=1;strokeColor=none;fillColor=none;fontFamily=Garamond;" parent="1" vertex="1">
          <mxGeometry x="520" y="76.5" width="30" height="30" as="geometry" />
        </mxCell>
        <mxCell id="1Ee7xdFOG9PcMPEvIMVO-2" value="" style="endArrow=diamondThin;endFill=1;endSize=12;html=1;rounded=0;exitX=1;exitY=0.25;exitDx=0;exitDy=0;fontFamily=Garamond;edgeStyle=orthogonalEdgeStyle;entryX=0;entryY=0.5;entryDx=0;entryDy=0;" parent="1" source="xtmV2fKqcU-oVq7hbdmb-13" target="xtmV2fKqcU-oVq7hbdmb-25" edge="1">
          <mxGeometry width="160" relative="1" as="geometry">
            <mxPoint x="280" y="120" as="sourcePoint" />
            <mxPoint x="390" y="136" as="targetPoint" />
            <Array as="points">
              <mxPoint x="270" y="200" />
              <mxPoint x="320" y="200" />
              <mxPoint x="320" y="124" />
            </Array>
          </mxGeometry>
        </mxCell>
        <mxCell id="1Ee7xdFOG9PcMPEvIMVO-3" value="1" style="text;html=1;align=center;verticalAlign=middle;resizable=0;points=[];autosize=1;strokeColor=none;fillColor=none;fontFamily=Garamond;" parent="1" vertex="1">
          <mxGeometry x="270" y="174" width="30" height="30" as="geometry" />
        </mxCell>
        <mxCell id="1Ee7xdFOG9PcMPEvIMVO-4" value="1" style="text;html=1;align=center;verticalAlign=middle;resizable=0;points=[];autosize=1;strokeColor=none;fillColor=none;fontFamily=Garamond;" parent="1" vertex="1">
          <mxGeometry x="350" y="130" width="30" height="30" as="geometry" />
        </mxCell>
        <mxCell id="1Ee7xdFOG9PcMPEvIMVO-5" value="" style="endArrow=none;html=1;endSize=12;startArrow=diamondThin;startSize=14;startFill=0;edgeStyle=orthogonalEdgeStyle;align=left;verticalAlign=bottom;rounded=0;entryX=1;entryY=0.5;entryDx=0;entryDy=0;endFill=0;exitX=0;exitY=0.5;exitDx=0;exitDy=0;" parent="1" source="xtmV2fKqcU-oVq7hbdmb-19" edge="1">
          <mxGeometry x="-1" y="3" relative="1" as="geometry">
            <mxPoint x="390" y="233" as="sourcePoint" />
            <mxPoint x="270.0000000000001" y="232.5" as="targetPoint" />
          </mxGeometry>
        </mxCell>
        <mxCell id="1Ee7xdFOG9PcMPEvIMVO-6" value="1" style="text;html=1;align=center;verticalAlign=middle;resizable=0;points=[];autosize=1;strokeColor=none;fillColor=none;fontFamily=Garamond;" parent="1" vertex="1">
          <mxGeometry x="270" y="205" width="30" height="30" as="geometry" />
        </mxCell>
        <mxCell id="1Ee7xdFOG9PcMPEvIMVO-7" value="0 ..*" style="text;html=1;align=center;verticalAlign=middle;resizable=0;points=[];autosize=1;strokeColor=none;fillColor=none;fontFamily=Garamond;" parent="1" vertex="1">
          <mxGeometry x="344" y="204" width="40" height="30" as="geometry" />
        </mxCell>
        <mxCell id="1Ee7xdFOG9PcMPEvIMVO-8" value="Restriction" style="swimlane;fontStyle=1;align=center;verticalAlign=middle;childLayout=stackLayout;horizontal=1;startSize=40;horizontalStack=0;resizeParent=1;resizeParentMax=0;resizeLast=0;collapsible=0;marginBottom=0;html=1;whiteSpace=wrap;fontFamily=Garamond;fontSize=14;" parent="1" vertex="1">
          <mxGeometry x="130" y="290" width="140" height="65" as="geometry" />
        </mxCell>
        <mxCell id="1Ee7xdFOG9PcMPEvIMVO-9" value="" style="endArrow=diamondThin;endFill=1;endSize=12;html=1;rounded=0;exitX=0.5;exitY=0;exitDx=0;exitDy=0;fontFamily=Garamond;edgeStyle=orthogonalEdgeStyle;entryX=0.5;entryY=1;entryDx=0;entryDy=0;" parent="1" source="1Ee7xdFOG9PcMPEvIMVO-8" target="xtmV2fKqcU-oVq7hbdmb-13" edge="1">
          <mxGeometry width="160" relative="1" as="geometry">
            <mxPoint x="280" y="206" as="sourcePoint" />
            <mxPoint x="390" y="134" as="targetPoint" />
            <Array as="points">
              <mxPoint x="200" y="270" />
              <mxPoint x="200" y="270" />
            </Array>
          </mxGeometry>
        </mxCell>
        <mxCell id="1Ee7xdFOG9PcMPEvIMVO-10" value="0 ..*" style="text;html=1;align=center;verticalAlign=middle;resizable=0;points=[];autosize=1;strokeColor=none;fillColor=none;fontFamily=Garamond;" parent="1" vertex="1">
          <mxGeometry x="200" y="267" width="40" height="30" as="geometry" />
        </mxCell>
        <mxCell id="1Ee7xdFOG9PcMPEvIMVO-11" value="1" style="text;html=1;align=center;verticalAlign=middle;resizable=0;points=[];autosize=1;strokeColor=none;fillColor=none;fontFamily=Garamond;" parent="1" vertex="1">
          <mxGeometry x="200" y="245" width="30" height="30" as="geometry" />
        </mxCell>
        <mxCell id="1Ee7xdFOG9PcMPEvIMVO-12" value="" style="endArrow=none;html=1;endSize=12;startArrow=diamondThin;startSize=14;startFill=0;edgeStyle=orthogonalEdgeStyle;align=left;verticalAlign=bottom;rounded=0;entryX=1;entryY=0.5;entryDx=0;entryDy=0;endFill=0;exitX=0.527;exitY=0.977;exitDx=0;exitDy=0;exitPerimeter=0;" parent="1" source="xtmV2fKqcU-oVq7hbdmb-20" target="1Ee7xdFOG9PcMPEvIMVO-8" edge="1">
          <mxGeometry x="-1" y="3" relative="1" as="geometry">
            <mxPoint x="394" y="242" as="sourcePoint" />
            <mxPoint x="280.0000000000001" y="242.5" as="targetPoint" />
          </mxGeometry>
        </mxCell>
        <mxCell id="1Ee7xdFOG9PcMPEvIMVO-13" value="0 ..*" style="text;html=1;align=center;verticalAlign=middle;resizable=0;points=[];autosize=1;strokeColor=none;fillColor=none;fontFamily=Garamond;" parent="1" vertex="1">
          <mxGeometry x="455" y="259" width="40" height="30" as="geometry" />
        </mxCell>
        <mxCell id="1Ee7xdFOG9PcMPEvIMVO-14" value="1" style="text;html=1;align=center;verticalAlign=middle;resizable=0;points=[];autosize=1;strokeColor=none;fillColor=none;fontFamily=Garamond;" parent="1" vertex="1">
          <mxGeometry x="270" y="297" width="30" height="30" as="geometry" />
        </mxCell>
        <mxCell id="1Ee7xdFOG9PcMPEvIMVO-16" value="" style="endArrow=none;html=1;endSize=12;startArrow=diamondThin;startSize=14;startFill=0;edgeStyle=orthogonalEdgeStyle;align=left;verticalAlign=bottom;rounded=0;endFill=0;exitX=1.004;exitY=-0.143;exitDx=0;exitDy=0;exitPerimeter=0;entryX=0.505;entryY=1.023;entryDx=0;entryDy=0;entryPerimeter=0;" parent="1" source="xtmV2fKqcU-oVq7hbdmb-20" target="xtmV2fKqcU-oVq7hbdmb-18" edge="1">
          <mxGeometry x="-1" y="3" relative="1" as="geometry">
            <mxPoint x="462" y="268" as="sourcePoint" />
            <mxPoint x="750" y="340" as="targetPoint" />
          </mxGeometry>
        </mxCell>
        <mxCell id="1Ee7xdFOG9PcMPEvIMVO-17" value="1" style="text;html=1;align=center;verticalAlign=middle;resizable=0;points=[];autosize=1;strokeColor=none;fillColor=none;fontFamily=Garamond;" parent="1" vertex="1">
          <mxGeometry x="730" y="144" width="30" height="30" as="geometry" />
        </mxCell>
        <mxCell id="1Ee7xdFOG9PcMPEvIMVO-18" value="0 ..*" style="text;html=1;align=center;verticalAlign=middle;resizable=0;points=[];autosize=1;strokeColor=none;fillColor=none;fontFamily=Garamond;" parent="1" vertex="1">
          <mxGeometry x="524" y="197.5" width="40" height="30" as="geometry" />
        </mxCell>
      </root>
    </mxGraphModel>
  </diagram>
</mxfile>
